<svg width="112" height="65" viewBox="0 0 112 65" fill="none" xmlns="http://www.w3.org/2000/svg">
<rect width="6" height="6" rx="3" fill="black" fill-opacity="0.1"/>
<rect x="11.7209" width="6" height="6" rx="3" fill="black" fill-opacity="0.1"/>
<rect x="23.4419" width="6" height="6" rx="3" fill="black" fill-opacity="0.1"/>
<rect x="35.1628" width="6" height="6" rx="3" fill="black" fill-opacity="0.1"/>
<rect x="46.8838" width="6" height="6" rx="3" fill="black" fill-opacity="0.1"/>
<rect x="58.6047" width="6" height="6" rx="3" fill="black" fill-opacity="0.1"/>
<rect x="70.3257" width="6" height="6" rx="3" fill="black" fill-opacity="0.1"/>
<rect x="82.0464" width="6" height="6" rx="3" fill="black" fill-opacity="0.1"/>
<rect x="93.7673" width="6" height="6" rx="3" fill="black" fill-opacity="0.1"/>
<rect x="105.488" width="6" height="6" rx="3" fill="black" fill-opacity="0.1"/>
<rect y="11.7209" width="6" height="6" rx="3" fill="black" fill-opacity="0.1"/>
<rect x="11.7209" y="11.7209" width="6" height="6" rx="3" fill="black" fill-opacity="0.1"/>
<rect x="23.4419" y="11.7209" width="6" height="6" rx="3" fill="black" fill-opacity="0.1"/>
<rect x="35.1628" y="11.7209" width="6" height="6" rx="3" fill="black" fill-opacity="0.1"/>
<rect x="46.8838" y="11.7209" width="6" height="6" rx="3" fill="black" fill-opacity="0.1"/>
<rect x="58.6047" y="11.7209" width="6" height="6" rx="3" fill="black" fill-opacity="0.1"/>
<rect x="70.3257" y="11.7209" width="6" height="6" rx="3" fill="black" fill-opacity="0.1"/>
<rect x="82.0464" y="11.7209" width="6" height="6" rx="3" fill="black" fill-opacity="0.1"/>
<rect x="93.7673" y="11.7209" width="6" height="6" rx="3" fill="black" fill-opacity="0.1"/>
<rect x="105.488" y="11.7209" width="6" height="6" rx="3" fill="black" fill-opacity="0.1"/>
<rect y="23.4418" width="6" height="6" rx="3" fill="black" fill-opacity="0.1"/>
<rect x="11.7209" y="23.4418" width="6" height="6" rx="3" fill="black" fill-opacity="0.1"/>
<rect x="23.4419" y="23.4418" width="6" height="6" rx="3" fill="black" fill-opacity="0.1"/>
<rect x="35.1628" y="23.4418" width="6" height="6" rx="3" fill="black" fill-opacity="0.1"/>
<rect x="46.8838" y="23.4418" width="6" height="6" rx="3" fill="black" fill-opacity="0.1"/>
<rect x="58.6047" y="23.4418" width="6" height="6" rx="3" fill="black" fill-opacity="0.1"/>
<rect x="70.3257" y="23.4418" width="6" height="6" rx="3" fill="black" fill-opacity="0.1"/>
<rect x="82.0464" y="23.4419" width="6" height="6" rx="3" fill="black" fill-opacity="0.1"/>
<rect x="93.7673" y="23.4419" width="6" height="6" rx="3" fill="black" fill-opacity="0.1"/>
<rect x="105.488" y="23.4418" width="6" height="6" rx="3" fill="black" fill-opacity="0.1"/>
<rect y="35.1628" width="6" height="6" rx="3" fill="black" fill-opacity="0.1"/>
<rect x="11.7209" y="35.1628" width="6" height="6" rx="3" fill="black" fill-opacity="0.1"/>
<rect x="23.4419" y="35.1628" width="6" height="6" rx="3" fill="black" fill-opacity="0.1"/>
<rect x="35.1628" y="35.1628" width="6" height="6" rx="3" fill="black" fill-opacity="0.1"/>
<rect x="46.8838" y="35.1628" width="6" height="6" rx="3" fill="black" fill-opacity="0.1"/>
<rect x="58.6047" y="35.1628" width="6" height="6" rx="3" fill="black" fill-opacity="0.1"/>
<rect x="70.3257" y="35.1628" width="6" height="6" rx="3" fill="black" fill-opacity="0.1"/>
<rect x="82.0464" y="35.1628" width="6" height="6" rx="3" fill="black" fill-opacity="0.1"/>
<rect x="93.7673" y="35.1628" width="6" height="6" rx="3" fill="black" fill-opacity="0.1"/>
<rect x="105.488" y="35.1628" width="6" height="6" rx="3" fill="black" fill-opacity="0.1"/>
<rect y="46.8837" width="6" height="6" rx="3" fill="black" fill-opacity="0.1"/>
<rect x="11.7209" y="46.8837" width="6" height="6" rx="3" fill="black" fill-opacity="0.1"/>
<rect x="23.4419" y="46.8837" width="6" height="6" rx="3" fill="black" fill-opacity="0.1"/>
<rect x="35.1628" y="46.8837" width="6" height="6" rx="3" fill="black" fill-opacity="0.1"/>
<rect x="46.8838" y="46.8837" width="6" height="6" rx="3" fill="black" fill-opacity="0.1"/>
<rect x="58.6047" y="46.8837" width="6" height="6" rx="3" fill="black" fill-opacity="0.1"/>
<rect x="70.3257" y="46.8837" width="6" height="6" rx="3" fill="black" fill-opacity="0.1"/>
<rect x="82.0464" y="46.8837" width="6" height="6" rx="3" fill="black" fill-opacity="0.1"/>
<rect x="93.7673" y="46.8837" width="6" height="6" rx="3" fill="black" fill-opacity="0.1"/>
<rect x="105.488" y="46.8837" width="6" height="6" rx="3" fill="black" fill-opacity="0.1"/>
<rect y="58.6046" width="6" height="6" rx="3" fill="black" fill-opacity="0.1"/>
<rect x="11.7209" y="58.6046" width="6" height="6" rx="3" fill="black" fill-opacity="0.1"/>
<rect x="23.4419" y="58.6046" width="6" height="6" rx="3" fill="black" fill-opacity="0.1"/>
<rect x="35.1628" y="58.6046" width="6" height="6" rx="3" fill="black" fill-opacity="0.1"/>
<rect x="46.8838" y="58.6046" width="6" height="6" rx="3" fill="black" fill-opacity="0.1"/>
<rect x="58.6047" y="58.6046" width="6" height="6" rx="3" fill="black" fill-opacity="0.1"/>
<rect x="70.3257" y="58.6046" width="6" height="6" rx="3" fill="black" fill-opacity="0.1"/>
<rect x="82.0464" y="58.6046" width="6" height="6" rx="3" fill="black" fill-opacity="0.1"/>
<rect x="93.7673" y="58.6046" width="6" height="6" rx="3" fill="black" fill-opacity="0.1"/>
<rect x="105.488" y="58.6046" width="6" height="6" rx="3" fill="black" fill-opacity="0.1"/>
</svg>
